<?xml version="1.0" standalone="no"?><!DOCTYPE svg PUBLIC "-//W3C//DTD SVG 1.1//EN" "http://www.w3.org/Graphics/SVG/1.1/DTD/svg11.dtd"><svg class="icon" width="200px" height="200.00px" viewBox="0 0 1024 1024" version="1.1" xmlns="http://www.w3.org/2000/svg"><path fill="#66ad57" d="M196 751h632v60H196v-60z m487.093-529.213L793.4 332.095c11.716 11.716 11.716 30.711 0 42.427L500.66 667.264a30 30 0 0 1-21.41 8.786l-111.006-0.731c-16.566-0.11-29.907-13.625-29.802-30.19l0.697-109.578a30 30 0 0 1 8.786-21.022l292.742-292.742c11.716-11.716 30.71-11.716 42.427 0z m-21.214 63.64l-262.82 262.82-0.429 67.27 68.471 0.452 262.66-262.66-67.882-67.883z" /></svg>