<?xml version="1.0" standalone="no"?><!DOCTYPE svg PUBLIC "-//W3C//DTD SVG 1.1//EN" "http://www.w3.org/Graphics/SVG/1.1/DTD/svg11.dtd"><svg class="icon" width="200px" height="200.00px" viewBox="0 0 1024 1024" version="1.1" xmlns="http://www.w3.org/2000/svg"><path fill="#2c2c2c" d="M307.2 580.27008h204.8v68.25984H307.2zM443.72992 238.92992h-68.25984C337.93024 238.92992 307.2 269.66016 307.2 307.2v136.52992C307.2 481.26976 337.93024 512 375.47008 512h68.25984C481.26976 512 512 481.26976 512 443.72992V307.2c0-37.53984-30.73024-68.27008-68.27008-68.27008z m0 204.8h-68.25984V307.2h68.25984v136.52992zM921.52832 307.2c0-75.39712-61.16352-136.52992-136.52992-136.52992H716.8v68.27008h68.1984a68.29056 68.29056 0 0 1 68.27008 68.27008l0.06144 375.47008C853.32992 701.50144 838.03136 716.8 819.2 716.8s-34.12992-15.29856-34.12992-34.12992V546.12992H648.52992V170.67008c0-37.5296-30.73024-68.27008-68.25984-68.27008H238.92992c-37.5296 0-68.25984 30.73024-68.25984 68.27008v682.67008H102.4V921.6h614.4v-68.27008h-68.27008V614.4H716.8v68.27008c0 56.53504 45.86496 102.4 102.4 102.4s102.4-45.86496 102.4-102.4L921.52832 307.2zM580.27008 853.32992H238.92992V170.67008h341.34016v682.65984z" /></svg>