<?xml version="1.0" standalone="no"?><!DOCTYPE svg PUBLIC "-//W3C//DTD SVG 1.1//EN" "http://www.w3.org/Graphics/SVG/1.1/DTD/svg11.dtd"><svg class="icon" width="200px" height="200.00px" viewBox="0 0 1024 1024" version="1.1" xmlns="http://www.w3.org/2000/svg"><path fill="#66ad57" d="M768 426.666667a42.666667 42.666667 0 0 1-42.666667-42.666667 42.666667 42.666667 0 0 1 42.666667-42.666667 42.666667 42.666667 0 0 1 42.666667 42.666667 42.666667 42.666667 0 0 1-42.666667 42.666667m-256 0H256V213.333333h256m331.52 95.146667l0.426667-0.426667-158.72-158.72L640 194.56l90.026667 90.026667C689.92 298.666667 661.333333 338.346667 661.333333 384a106.666667 106.666667 0 0 0 106.666667 106.666667c15.36 0 29.44-3.413333 42.666667-8.96v307.626666a42.666667 42.666667 0 0 1-42.666667 42.666667 42.666667 42.666667 0 0 1-42.666667-42.666667V597.333333a85.333333 85.333333 0 0 0-85.333333-85.333333h-42.666667V213.333333a85.333333 85.333333 0 0 0-85.333333-85.333333H256c-47.36 0-85.333333 37.973333-85.333333 85.333333v682.666667h426.666666v-320h64v213.333333A106.666667 106.666667 0 0 0 768 896a106.666667 106.666667 0 0 0 106.666667-106.666667V384c0-29.44-11.946667-56.32-31.146667-75.52z"  /></svg>